:SAMPLES-PER-SECOND 30
:FRAME-RANGE 1-1770
:FULLY-SPECIFIED
:DEGREES
1162
root  15.893 39.1725 26.0292 -172.392 -35.7708 176.52
RightUpLeg  -9.38779 -30.5245 -20.9718
RightLeg  14.3554 -8.84957 -1.67282
RightFoot  3.44619 -2.29575 17.7443
RightToes  6.35937e-011 1.2921e-014 -6.02303e-014
Spine  7.60927 3.66874 7.87775
Spine1  -4.87366 5.82224 -11.5649
HEad  1.76834 -0.758427 -2.58542
LeftShoulder1  1.14717 -0.642466 -21.2711
LeftArm  -37.9926 -18.9413 -13.8027
LeftForeArm  25.0531 -58.3453 -16.1358
LeftHand  -0.179428 2.20981 6.25636
RightShoulder  13.461 41.1787 23.1049
RightArm  -6.63345 41.5083 19.0537
RightForeArm  19.4057 33.9658 6.44513
RightHand  -1.17343 2.95649 -16.4564
LeftUpLeg  -0.785981 15.9484 13.9547
LeftLeg  11.0316 -10.112 -4.16639
LeftFoot  -5.11945 1.01625 -18.0087
LeftToes  3.18074e-010 1.39432e-010 -7.71186e-011
1163
root  16.4837 38.9929 25.0475 -172.981 -33.6989 176.466
RightUpLeg  -13.4577 -37.1279 -16.2575
RightLeg  15.6309 -10.9205 -1.89509
RightFoot  2.10242 -1.28034 10.9546
RightToes  6.35937e-011 1.2921e-014 -6.02303e-014
Spine  7.21976 3.28459 8.55986
Spine1  -3.90083 5.59873 -11.2485
HEad  2.5276 0.526906 -2.53351
LeftShoulder1  1.08913 -0.153559 -23.5007
LeftArm  -31.7422 -8.27561 -10.4492
LeftForeArm  28.7211 -58.8403 -16.1151
LeftHand  -0.235291 1.88735 7.60589
RightShoulder  15.8067 38.6801 30.7418
RightArm  5.01831 37.4414 22.6091
RightForeArm  17.1786 33.6643 6.4981
RightHand  -1.06525 2.99207 -14.9156
LeftUpLeg  1.15287 16.3791 15.6683
LeftLeg  10.9842 -9.19047 -3.32622
LeftFoot  -4.2863 1.3255 -20.883
LeftToes  3.18074e-010 1.39432e-010 -7.71186e-011
1164
root  17.1234 38.8913 23.9794 -173.936 -31.8455 177.064
RightUpLeg  -17.747 -34.757 -12.2821
RightLeg  23.0282 -11.4717 -5.47513
RightFoot  -1.63248 -0.19553 2.17026
RightToes  6.35937e-011 1.2921e-014 -6.02303e-014
Spine  7.0852 3.09463 10.2757
Spine1  -2.93651 5.52369 -10.048
HEad  3.51348 1.31701 -2.8663
LeftShoulder1  0.983447 0.395406 -25.4406
LeftArm  -24.6577 0.422725 -9.76908
LeftForeArm  28.918 -53.8074 -12.988
LeftHand  -0.31402 1.03469 8.32624
RightShoulder  16.9937 35.0307 37.4569
RightArm  18.0592 31.6855 25.6593
RightForeArm  14.0682 31.2601 6.06743
RightHand  -0.94667 3.55055 -12.5019
LeftUpLeg  2.71275 16.3901 17.9211
LeftLeg  11.4144 -7.86346 -2.15437
LeftFoot  -2.25402 1.997 -24.6165
LeftToes  3.18074e-010 1.39432e-010 -7.71186e-011
1165
root  17.8631 38.5823 22.8029 -175.471 -30.4799 177.871
RightUpLeg  -17.3839 -26.6321 -11.2794
RightLeg  28.4559 -15.2879 -9.02635
RightFoot  -6.12017 -0.312603 5.93612
RightToes  6.35937e-011 1.2921e-014 -6.02303e-014
Spine  7.6896 2.72087 11.1397
Spine1  -2.57715 5.33285 -9.48356
HEad  4.74933 2.28577 -3.89991
LeftShoulder1  0.782267 1.1431 -26.9837
LeftArm  -16.2054 7.11194 -11.6343
LeftForeArm  23.0492 -45.2967 -9.69764
LeftHand  -0.318343 0.425929 7.46444
RightShoulder  17.2378 31.2446 42.8446
RightArm  32.6995 24.8254 27.0577
RightForeArm  8.16846 25.6196 5.06618
RightHand  -0.770465 4.68019 -9.1516
LeftUpLeg  2.39281 15.7937 20.7911
LeftLeg  16.2415 -5.10104 -1.35816
LeftFoot  0.106933 2.83281 -27.7661
LeftToes  3.18074e-010 1.39432e-010 -7.71186e-011
1166
root  18.539 38.3157 21.5775 -177.026 -30.2232 179.424
RightUpLeg  -16.0436 -25.4026 -9.14607
RightLeg  31.0894 -15.0651 -9.8375
RightFoot  -9.67393 -0.218784 10.4766
RightToes  6.35937e-011 1.2921e-014 -6.02303e-014
Spine  7.63356 2.16265 12.729
Spine1  -1.82709 4.83662 -7.7017
HEad  5.38777 3.00104 -4.69302
LeftShoulder1  0.699188 1.43323 -27.629
LeftArm  -6.65368 12.6787 -15.7045
LeftForeArm  12.7151 -35.7158 -7.31502
LeftHand  -0.266636 0.138332 5.93154
RightShoulder  16.5914 27.0884 47.2168
RightArm  36.8943 19.04 26.2155
RightForeArm  10.8008 15.4486 10.9702
RightHand  -0.499903 4.80276 -5.9814
LeftUpLeg  -0.0521821 12.4023 23.493
LeftLeg  22.5949 2.24083 1.34745
LeftFoot  5.66069 4.52807 -29.8975
LeftToes  3.18074e-010 1.39432e-010 -7.71186e-011
1167
root  19.095 38.1987 20.544 -177.803 -30.7362 -179.236
RightUpLeg  -15.0686 -28.3846 -6.93283
RightLeg  32.0326 -13.1638 -8.9838
RightFoot  -12.6655 0.0286767 9.91745
RightToes  6.35937e-011 1.2921e-014 -6.02303e-014
Spine  7.5537 1.48954 14.1517
Spine1  -1.44992 4.04438 -5.31635
HEad  5.99556 2.8087 -4.97764
LeftShoulder1  0.751034 1.32972 -28.4276
LeftArm  7.73506 16.2892 -20.7656
LeftForeArm  -1.63147 -24.7058 -5.36929
LeftHand  -0.225221 -0.641148 4.43229
RightShoulder  15.6032 23.3499 50.7286
RightArm  27.2952 14.754 22.152
RightForeArm  20.2136 0.0577888 18.4017
RightHand  -0.119367 4.25556 -1.71439
LeftUpLeg  -5.33818 6.77309 23.7223
LeftLeg  30.7736 9.54915 6.4173
LeftFoot  15.3935 4.1112 -17.5863
LeftToes  3.18074e-010 1.39432e-010 -7.71186e-011
1168
root  19.5892 38.1194 19.5119 -178.567 -29.7204 -178.326
RightUpLeg  -13.8857 -27.6399 -5.1028
RightLeg  32.6967 -12.9441 -9.0632
RightFoot  -15.0365 0.220329 9.97789
RightToes  6.35937e-011 1.2921e-014 -6.02303e-014
Spine  8.89748 1.35363 15.0416
Spine1  -1.9424 3.96444 -3.76326
HEad  5.93644 1.92737 -4.77841
LeftShoulder1  0.817902 1.19574 -29.3396
LeftArm  5.68519 17.5631 -24.7934
LeftForeArm  5.63823 -10.0506 -14.3874
LeftHand  -0.0900199 -0.226564 1.90202
RightShoulder  14.0033 19.5377 53.0844
RightArm  1.68407 11.1859 14.9945
RightForeArm  45.3896 -5.23909 16.0387
RightHand  0.239235 3.2726 2.96733
LeftUpLeg  -9.90883 5.25784 22.8461
LeftLeg  39.3383 8.40446 7.6716
LeftFoot  16.5734 1.91662 -8.11472
LeftToes  3.18074e-010 1.39432e-010 -7.71186e-011
1169
root  20.0193 38.1218 18.389 -179.022 -27.7426 -177.87
RightUpLeg  -12.3101 -25.0746 -3.54182
RightLeg  32.5821 -13.5079 -9.39561
RightFoot  -16.8738 0.379793 10.2109
RightToes  6.35937e-011 1.2921e-014 -6.02303e-014
Spine  9.8753 1.41218 15.048
Spine1  -1.77718 4.05217 -2.84477
HEad  4.92435 1.11584 -3.6967
LeftShoulder1  0.896857 1.05233 -30.5053
LeftArm  6.31081 20.5163 -28.8355
LeftForeArm  11.0514 -0.278905 -18.1008
LeftHand  0.174618 -0.950451 -3.12082
RightShoulder  11.2796 15.2043 52.7243
RightArm  -13.1782 6.24745 8.79895
RightForeArm  56.6241 -7.18161 12.629
RightHand  0.18635 2.53812 2.5288
LeftUpLeg  -14.1264 6.46277 20.4806
LeftLeg  47.088 4.86362 5.98077
LeftFoot  10.5956 1.47964 -7.96088
LeftToes  3.18074e-010 1.39432e-010 -7.71186e-011
1170
root  20.3697 38.2444 17.2508 -178.693 -25.278 -177.793
RightUpLeg  -10.554 -24.0429 -2.49859
RightLeg  30.6936 -13.065 -8.36117
RightFoot  -18.149 0.479115 10.1065
RightToes  6.35937e-011 1.2921e-014 -6.02303e-014
Spine  10.1479 1.39678 14.6111
Spine1  -1.33918 3.92842 -2.68811
HEad  2.90141 0.710424 -2.2094
LeftShoulder1  0.906047 1.06731 -31.1121
LeftArm  7.03967 26.6597 -33.5682
LeftForeArm  13.9145 1.9383 -18.4814
LeftHand  0.305255 -1.56654 -4.9716
RightShoulder  7.33318 9.60125 49.0218
RightArm  -8.83086 1.54354 6.17979
RightForeArm  46.1871 -7.12895 14.2258
RightHand  0.125208 2.59489 1.61664
LeftUpLeg  -18.4478 9.1996 16.5478
LeftLeg  52.1704 4.58406 6.74918
LeftFoot  6.45563 1.30639 -8.58425
LeftToes  3.18074e-010 1.39432e-010 -7.71186e-011
1171
root  20.6535 38.4565 16.0329 -177.457 -23.1876 -178.521
RightUpLeg  -8.34337 -21.8745 -2.91531
RightLeg  27.7329 -13.2229 -5.75967
RightFoot  -18.8823 0.450468 8.76679
RightToes  6.35937e-011 1.2921e-014 -6.02303e-014
Spine  9.49085 1.33621 13.4489
Spine1  -1.09347 3.509 -3.09913
HEad  1.37287 -0.0464888 -1.17591
LeftShoulder1  0.868835 1.19656 -31.5825
LeftArm  3.53044 33.3411 -37.3675
LeftForeArm  16.0011 1.30961 -18.1552
LeftHand  0.299964 -1.28355 -5.1198
RightShoulder  3.60897 3.7061 43.764
RightArm  1.921 -1.91563 5.33323
RightForeArm  31.5649 -5.5726 16.586
RightHand  0.192179 2.89836 2.47202
LeftUpLeg  -22.9534 11.7214 10.6876
LeftLeg  53.547 5.04807 7.75359
LeftFoot  2.59098 0.856313 -7.13189
LeftToes  3.18074e-010 1.39432e-010 -7.71186e-011
1172
root  20.9199 38.6931 14.7716 -176.149 -20.72 -179.6
RightUpLeg  -5.86446 -17.3713 -3.65204
RightLeg  24.2284 -15.8646 -3.99284
RightFoot  -19.0844 0.477329 8.95324
RightToes  6.35937e-011 1.2921e-014 -6.02303e-014
Spine  8.95219 1.52221 12.2804
Spine1  -1.40897 3.42062 -4.25583
HEad  1.13713 -1.24326 -1.12363
LeftShoulder1  0.855768 1.25046 -31.9031
LeftArm  -1.81237 38.3008 -39.2878
LeftForeArm  17.5101 0.806804 -17.6531
LeftHand  0.331284 -1.56372 -5.40941
RightShoulder  1.28314 -0.605514 38.5221
RightArm  11.3439 -5.0536 4.05056
RightForeArm  21.0395 -3.63733 17.9566
RightHand  0.298324 3.43383 3.67776
LeftUpLeg  -26.5694 13.9784 4.08917
LeftLeg  50.9038 5.81428 8.05176
LeftFoot  -0.247621 0.648165 -6.65557
LeftToes  3.18074e-010 1.39432e-010 -7.71186e-011
1173
root  21.2125 38.9318 13.5093 -175.012 -17.9492 179.347
RightUpLeg  -3.21698 -12.9017 -3.92605
RightLeg  19.9381 -18.3043 -2.64927
RightFoot  -18.8212 0.461274 8.9966
RightToes  6.35937e-011 1.2921e-014 -6.02303e-014
Spine  8.56878 1.812 11.1473
Spine1  -1.6857 3.55932 -5.74118
HEad  2.03146 -2.34657 -1.37972
LeftShoulder1  0.830153 1.32065 -31.9496
LeftArm  -5.10657 40.2096 -39.2451
LeftForeArm  18.703 1.33723 -17.3758
LeftHand  0.377987 -1.64708 -6.10873
RightShoulder  0.162711 -3.06394 33.4813
RightArm  13.3903 -7.96309 2.69229
RightForeArm  18.7486 -3.39942 18.1384
RightHand  0.318495 3.78322 3.76744
LeftUpLeg  -29.115 16.0364 -2.28867
LeftLeg  44.4129 5.78632 6.42824
LeftFoot  -1.79842 0.633591 -7.45546
LeftToes  3.18074e-010 1.39432e-010 -7.71186e-011
1174
root  21.5142 39.1244 12.2518 -174.083 -15.0376 178.34
RightUpLeg  -0.381181 -10.209 -4.09815
RightLeg  15.2532 -18.5564 -1.32996
RightFoot  -18.3484 0.401675 8.58229
RightToes  6.35937e-011 1.2921e-014 -6.02303e-014
Spine  8.1586 2.00066 9.89407
Spine1  -1.43462 3.73827 -7.24442
HEad  2.82729 -3.19173 -1.48347
LeftShoulder1  0.853505 1.25981 -31.9604
LeftArm  -4.4384 39.9416 -37.4645
LeftForeArm  17.4496 1.34508 -17.4309
LeftHand  0.366676 -1.35843 -6.20548
RightShoulder  -0.173552 -3.96272 29.4979
RightArm  9.22019 -9.9332 1.07069
RightForeArm  21.7654 -4.61641 17.5675
RightHand  0.267202 3.62497 3.18548
LeftUpLeg  -30.5121 17.2557 -7.96827
LeftLeg  34.7895 4.46958 3.68239
LeftFoot  -2.6995 0.702353 -9.06892
LeftToes  3.18074e-010 1.39432e-010 -7.71186e-011
1175
root  21.8111 39.213 10.9923 -173.469 -11.991 177.787
RightUpLeg  2.6931 -8.96868 -4.07067
RightLeg  10.4981 -16.9977 -0.0555755
RightFoot  -17.8852 0.353949 8.30347
RightToes  6.35937e-011 1.2921e-014 -6.02303e-014
Spine  7.81018 1.95015 8.56716
Spine1  -0.936178 3.74675 -8.34504
HEad  3.00639 -3.22854 -1.39852
LeftShoulder1  0.880323 1.19946 -32.1289
LeftArm  -1.64378 38.7268 -34.5126
LeftForeArm  14.4148 0.026738 -17.5228
LeftHand  0.340135 -0.878029 -6.24337
RightShoulder  -0.01798 -3.52998 27.3168
RightArm  2.44307 -10.1912 -1.10243
RightForeArm  25.8806 -6.08359 16.5728
RightHand  0.158164 2.91113 1.99143
LeftUpLeg  -30.7218 17.2852 -11.9554
LeftLeg  23.4279 1.91907 1.23865
LeftFoot  -2.83563 0.815925 -10.7211
LeftToes  3.18074e-010 1.39432e-010 -7.71186e-011
1176
root  22.0871 39.1645 9.6589 -173.626 -8.48603 177.687
RightUpLeg  6.2117 -8.0193 -3.94085
RightLeg  6.7046 -14.5341 0.612144
RightFoot  -17.7844 0.33731 8.12666
RightToes  6.35937e-011 1.2921e-014 -6.02303e-014
Spine  7.55307 1.89556 7.21308
Spine1  0.00484654 3.8567 -9.08522
HEad  3.07625 -2.52395 -0.792645
LeftShoulder1  0.903191 1.13465 -32.0504
LeftArm  0.354729 36.8495 -31.2415
LeftForeArm  12.6137 -1.06123 -17.4516
LeftHand  0.331396 -0.769859 -6.20052
RightShoulder  0.305559 -2.53974 26.4259
RightArm  -3.64773 -9.14817 -2.73899
RightForeArm  29.1252 -7.09834 15.5124
RightHand  0.0505276 2.04742 0.615851
LeftUpLeg  -28.8318 12.0504 -11.1721
LeftLeg  12.752 5.69011 0.0299354
LeftFoot  -2.03831 0.901773 -10.9093
LeftToes  3.18074e-010 1.39432e-010 -7.71186e-011
